<?xml version="1.0" encoding="UTF-8"?>
<svg width="296px" height="62px" viewBox="0 0 296 62" version="1.1" xmlns="http://www.w3.org/2000/svg" xmlns:xlink="http://www.w3.org/1999/xlink">
    <!-- Generator: Sketch 63.1 (92452) - https://sketch.com -->
    <title>A1</title>
    <desc>Created with Sketch.</desc>
    <g id="A1" stroke="none" stroke-width="1" fill="none" fill-rule="evenodd">
        <g id="Green_Lotous" transform="translate(4.000000, 3.000000)" stroke="#53C5B4">
            <path d="M27.5,55 C42.68783,55 55,42.68783 55,27.5 C55,12.31217 42.68783,0 27.5,0 C12.31217,0 0,12.31217 0,27.5 C0,42.68783 12.31217,55 27.5,55 Z" id="Stroke-150" stroke-width="2"></path>
            <path d="M27.9999125,28.5834337 C30.3096885,31.1143268 34.7814197,30.8568194 37.9878892,28.0081997 C40.1255294,26.109121 41.9053522,21.7619012 43.3273614,14.9665476 C36.3292651,15.6516006 31.7613957,16.9436673 29.6237522,18.8427469 C26.4172845,21.6913686 25.6903068,26.0523859 27.9999125,28.5834337 Z" id="Stroke-152" stroke-width="2"></path>
            <path d="M27.9999772,28.5833754 C31.1533632,29.9685582 35.1323315,27.9387544 36.8873583,24.0496361 C38.0572902,21.4568621 37.8911463,16.7712006 36.3889458,9.99266452 C30.2782695,13.4269232 26.6379077,16.440416 25.4678632,19.0331409 C23.7130157,22.9223391 24.846644,27.1980739 27.9999772,28.5833754 Z" id="Stroke-154" stroke-width="2"></path>
            <path d="M28.000087,28.5834062 C30.3541101,26.0925154 29.7043756,21.7196394 26.5487936,18.8162401 C24.4450649,16.8806382 19.9007436,15.5101116 12.9158303,14.7046579 C14.2174227,21.5234655 15.9200824,25.9006689 18.0238118,27.8362716 C21.179397,30.7396674 25.6458949,31.0741409 28.000087,28.5834062 Z" id="Stroke-156" stroke-width="2"></path>
            <path d="M28.0000223,28.5834027 C31.1533555,27.1981012 32.2869859,22.9223655 30.5321327,19.0331699 C29.3620907,16.4404438 25.7217273,13.4269517 19.6110528,9.99269225 C18.1088514,16.7712287 17.942713,21.4568878 19.1126376,24.049665 C20.8676643,27.9387834 24.8466363,29.9685855 28.0000223,28.5834027 Z" id="Stroke-158" stroke-width="2"></path>
            <path d="M28,28.5833 C31.45178,28.5833 34.25,25.13216 34.25,20.87497 C34.25,18.036837 32.16667,13.822948 28,8.2333 C23.833333,13.822948 21.75,18.036837 21.75,20.87497 C21.75,25.13216 24.54822,28.5833 28,28.5833 Z" id="Stroke-160" stroke-width="2"></path>
            <g id="Group-177" transform="translate(8.000000, 32.000000)" stroke-width="2">
                <path d="M10.3125,13.00003 C14.10946,13.00003 17.54696,10.73892 20.625,6.2167 C17.54696,2.5167 14.10946,0.6667 10.3125,0.6667 C4.617064,0.6667 0,2.470368 0,6.2167 C0,9.963032 4.617064,13.00003 10.3125,13.00003 Z" id="Stroke-168"></path>
                <path d="M29.6875,13.00003 C35.38294,13.00003 40,9.963032 40,6.2167 C40,2.470368 35.38294,0.6667 29.6875,0.6667 C25.890542,0.6667 22.453042,2.5167 19.375,6.2167 C22.453042,10.73892 25.890542,13.00003 29.6875,13.00003 Z" id="Stroke-170"></path>
                <path d="M19.375,6.2167 C16.14583,7.450033 13.697917,8.0667 12.03125,8.0667 C10.364583,8.0667 7.916667,7.450033 4.6875,6.2167" id="Stroke-172" stroke-linecap="square"></path>
                <path d="M35,6.2167 C35,6.2167 32.06941,8.0667 28.75,8.0667 C24.783578,8.0667 20.3125,6.2167 20.3125,6.2167" id="Stroke-174" stroke-linecap="square"></path>
            </g>
            <polygon id="Fill-163" fill="#53C5B4" points="27.375 38.45 28.625 38.45 28.625 28.583333 27.375 28.583333"></polygon>
        </g>
        <text id="Prajakta-Nagpure" font-family="Rubik-Medium, Rubik" font-size="25" font-weight="400" letter-spacing="0.0413461538" fill="#53C5B4">
            <tspan x="73" y="39">Prajakta Nagpure</tspan>
        </text>
    </g>
</svg>