<?xml version="1.0" encoding="UTF-8"?>
<svg width="70px" height="70px" viewBox="0 0 70 70" version="1.1" xmlns="http://www.w3.org/2000/svg" xmlns:xlink="http://www.w3.org/1999/xlink">
    <title>Artboard</title>
    <g id="Artboard" stroke="none" stroke-width="1" fill="none" fill-rule="evenodd">
        <rect id="Rectangle" fill="#FFFFFF" x="0" y="0" width="70" height="70"></rect>
        <g id="Logo" transform="translate(13.000000, 26.000000)" stroke="#53C5B4">
            <g id="Lotus">
                <path d="M30.9778687,27.8229412 C34.8030655,27.770668 37.95697,23.840989 38.0223116,19.0457577 C38.0658726,15.8489368 35.821839,11.1340343 31.2902107,4.90105026 C26.586997,11.2602331 24.2136096,16.038235 24.1700485,19.2350559 C24.104707,24.0302872 27.1526719,27.8752145 30.9778687,27.8229412 Z" id="Oval" stroke-width="2" transform="translate(31.095975, 16.362259) rotate(48.000000) translate(-31.095975, -16.362259) "></path>
                <path d="M27.1044788,24.9594286 C30.97034,24.920368 34.1438209,21.0426064 34.1926466,16.2982056 C34.2251971,13.1352717 31.9402724,8.46270816 27.3378727,2.28051495 C22.6072578,8.55700874 20.225675,13.2767226 20.1931246,16.4396564 C20.1442988,21.1840573 23.2386175,24.9984892 27.1044788,24.9594286 Z" id="Oval" stroke-width="2" transform="translate(27.192772, 13.620120) rotate(24.000000) translate(-27.192772, -13.620120) "></path>
                <path d="M14.1598553,27.6726023 C17.9868797,27.7250354 21.0361642,23.8820898 20.9706228,19.089143 C20.9269285,15.8938452 18.5522402,11.1180081 13.8465578,4.7616319 C9.31298578,10.9914233 7.06804691,15.7039679 7.1117412,18.8992658 C7.17728264,23.6922126 10.3328308,27.6201691 14.1598553,27.6726023 Z" id="Oval" stroke-width="2" transform="translate(14.041388, 16.217382) rotate(-47.000000) translate(-14.041388, -16.217382) "></path>
                <path d="M17.8955212,24.9594286 C21.7613825,24.9984892 24.8557012,21.1840573 24.8068754,16.4396564 C24.774325,13.2767226 22.3927422,8.55700874 17.6621273,2.28051495 C13.0597276,8.46270816 10.7748029,13.1352717 10.8073534,16.2982056 C10.8561791,21.0426064 14.02966,24.920368 17.8955212,24.9594286 Z" id="Oval" stroke-width="2" transform="translate(17.807228, 13.620120) rotate(-24.000000) translate(-17.807228, -13.620120) "></path>
                <path d="M22.5,23.9431818 C26.3832521,23.9431818 29.53125,20.1147077 29.53125,15.3920455 C29.53125,12.243604 27.1875,7.56898277 22.5,1.36818182 C17.8125,7.56898277 15.46875,12.243604 15.46875,15.3920455 C15.46875,20.1147077 18.6167479,23.9431818 22.5,23.9431818 Z" id="Oval" stroke-width="2"></path>
                <rect id="Rectangle" x="22.296875" y="24.4431818" width="1" height="9.94545455"></rect>
                <path d="M11.6015625,41.0454545 C15.8731399,41.0454545 19.7403274,38.5371212 23.203125,33.5204545 C19.7403274,29.4159091 15.8731399,27.3636364 11.6015625,27.3636364 C5.19419646,27.3636364 0,29.3645118 0,33.5204545 C0,37.6763973 5.19419646,41.0454545 11.6015625,41.0454545 Z" id="Oval" stroke-width="2"></path>
                <path d="M33.3984375,41.0454545 C39.8058035,41.0454545 45,37.6763973 45,33.5204545 C45,29.3645118 39.8058035,27.3636364 33.3984375,27.3636364 C29.1268601,27.3636364 25.2596726,29.4159091 21.796875,33.5204545 C25.2596726,38.5371212 29.1268601,41.0454545 33.3984375,41.0454545 Z" id="Oval" stroke-width="2"></path>
                <path d="M21.796875,33.5204545 C18.1640625,34.8886364 15.4101563,35.5727273 13.5351563,35.5727273 C11.6601563,35.5727273 8.90625,34.8886364 5.2734375,33.5204545" id="Line-2" stroke-width="2" stroke-linecap="square"></path>
                <path d="M39.375,33.5204545 C39.375,33.5204545 36.0780914,35.5727273 32.34375,35.5727273 C27.8815251,35.5727273 22.8515625,33.5204545 22.8515625,33.5204545" id="Line-2" stroke-width="2" stroke-linecap="square"></path>
            </g>
        </g>
    </g>
</svg>