<?xml version="1.0" encoding="UTF-8"?>
<svg width="60px" height="60px" viewBox="0 0 60 60" version="1.1" xmlns="http://www.w3.org/2000/svg" xmlns:xlink="http://www.w3.org/1999/xlink">
    <title>Artboard</title>
    <g id="Artboard" stroke="none" stroke-width="1" fill="none" fill-rule="evenodd">
        <rect id="Rectangle" fill="#FFFFFF" x="0" y="0" width="60" height="60"></rect>
        <g id="Logo" transform="translate(4.000000, 4.000000)" stroke="#53C5B4">
            <g id="Lotus">
                <circle id="Oval" cx="26.5" cy="26.5" r="26.5"></circle>
                <path d="M34.7039145,32.7347566 C38.199353,32.6869897 41.0813691,29.0960762 41.1410778,24.7142268 C41.1808836,21.7929939 39.1303012,17.4845486 34.9893305,11.7888908 C30.6915662,17.5998682 28.5227812,21.9659733 28.4829754,24.8872062 C28.4232667,29.2690556 31.208476,32.7825236 34.7039145,32.7347566 Z" id="Oval" transform="translate(34.811840, 22.262064) rotate(48.000000) translate(-34.811840, -22.262064) "></path>
                <path d="M31.1644375,30.1180986 C34.6970349,30.0824053 37.5969398,26.5389334 37.6415564,22.2035327 C37.6713008,19.3132655 35.5833524,15.0435092 31.3777113,9.39426366 C27.054908,15.1296804 24.8786341,19.4425223 24.8488897,22.3327895 C24.8042731,26.6681903 27.6318402,30.1537919 31.1644375,30.1180986 Z" id="Oval" transform="translate(31.245119, 19.756317) rotate(24.000000) translate(-31.245119, -19.756317) "></path>
                <path d="M19.3357298,32.597378 C22.8328384,32.645291 25.6192535,29.1336338 25.5593622,24.7538721 C25.5194347,21.8340309 23.3494608,17.469904 19.0494408,11.6614912 C14.9066939,17.3542316 12.8552842,21.6605224 12.8952118,24.5803636 C12.9551031,28.9601253 15.8386212,32.5494649 19.3357298,32.597378 Z" id="Oval" transform="translate(19.227475, 22.129677) rotate(-47.000000) translate(-19.227475, -22.129677) "></path>
                <path d="M22.7493556,30.1180986 C26.2819529,30.1537919 29.10952,26.6681903 29.0649034,22.3327895 C29.035159,19.4425223 26.8588852,15.1296804 22.5360818,9.39426366 C18.3304407,15.0435092 16.2424923,19.3132655 16.2722367,22.2035327 C16.3168533,26.5389334 19.2167582,30.0824053 22.7493556,30.1180986 Z" id="Oval" transform="translate(22.668674, 19.756317) rotate(-24.000000) translate(-22.668674, -19.756317) "></path>
                <path d="M26.5,29 C30.0898509,29 33,25.4386287 33,21.0454545 C33,18.1166718 30.8333333,13.7681869 26.5,8 C22.1666667,13.7681869 20,18.1166718 20,21.0454545 C20,25.4386287 22.9101491,29 26.5,29 Z" id="Oval"></path>
                <rect id="Rectangle" x="26.5" y="29.5" width="1" height="9"></rect>
                <path d="M16.5,45 C20.3659932,45 23.8659932,42.6166667 27,37.85 C23.8659932,33.95 20.3659932,32 16.5,32 C10.7010101,32 6,33.901164 6,37.85 C6,41.798836 10.7010101,45 16.5,45 Z" id="Oval"></path>
                <path d="M36.5,45 C42.2989899,45 47,41.798836 47,37.85 C47,33.901164 42.2989899,32 36.5,32 C32.6340068,32 29.1340068,33.95 26,37.85 C29.1340068,42.6166667 32.6340068,45 36.5,45 Z" id="Oval"></path>
                <path d="M26,38 C22.7021277,39.3333333 20.2021277,40 18.5,40 C16.7978723,40 14.2978723,39.3333333 11,38" id="Line-2" stroke-linecap="square"></path>
                <path d="M42,38 C42,38 39.0070617,40 35.6170213,40 C31.5662071,40 27,38 27,38" id="Line-2" stroke-linecap="square"></path>
            </g>
        </g>
    </g>
</svg>